<svg xmlns="http://www.w3.org/2000/svg" width="64" height="64" viewBox="0 0 64 64" fill="none" role="img" aria-label="GPT Image Studio">
  <defs>
    <linearGradient id="mark-fill" x1="10" y1="8" x2="52" y2="56" gradientUnits="userSpaceOnUse">
      <stop offset="0" stop-color="#22D3EE"/>
      <stop offset="0.52" stop-color="#34D399"/>
      <stop offset="1" stop-color="#F59E0B"/>
    </linearGradient>
    <linearGradient id="panel-fill" x1="16" y1="15" x2="48" y2="49" gradientUnits="userSpaceOnUse">
      <stop offset="0" stop-color="#FFFFFF"/>
      <stop offset="1" stop-color="#ECFEFF"/>
    </linearGradient>
  </defs>
  <rect x="6" y="6" width="52" height="52" rx="14" fill="#111827"/>
  <path d="M20 16H44C46.2091 16 48 17.7909 48 20V44C48 46.2091 46.2091 48 44 48H20C17.7909 48 16 46.2091 16 44V20C16 17.7909 17.7909 16 20 16Z" fill="url(#panel-fill)"/>
  <path d="M19.5 39.5L26.25 32.75C27.3546 31.6454 29.1454 31.6454 30.25 32.75L34 36.5L36.75 33.75C37.8546 32.6454 39.6454 32.6454 40.75 33.75L46.5 39.5V44C46.5 45.3807 45.3807 46.5 44 46.5H20C18.6193 46.5 17.5 45.3807 17.5 44V41.5C18.245 41.0752 18.9142 40.408 19.5 39.5Z" fill="url(#mark-fill)"/>
  <circle cx="39.5" cy="24.5" r="4.5" fill="#F97316"/>
  <path d="M32 9L34.116 14.884L40 17L34.116 19.116L32 25L29.884 19.116L24 17L29.884 14.884L32 9Z" fill="#FFFFFF"/>
  <path d="M32 11.75L33.221 15.779L37.25 17L33.221 18.221L32 22.25L30.779 18.221L26.75 17L30.779 15.779L32 11.75Z" fill="#111827"/>
  <path d="M50 40L55 45L49 47L50 40Z" fill="#FFFFFF"/>
  <path d="M50.641 42.406L52.734 44.499L50.222 45.337L50.641 42.406Z" fill="#111827"/>
</svg>
